HIERARCHY
ROOT root
{
	OFFSET	0	13.1	24.9
	CHANNELS 6  Xposition Yposition Zposition Xrotation Yrotation Zrotation
	JOINT spine_1
	{
		OFFSET	0	9.99999	0
		CHANNELS 3  Xrotation Yrotation Zrotation
		JOINT spine_2
		{
			OFFSET	0	112	-10
			CHANNELS 3  Xrotation Yrotation Zrotation
			JOINT spine_3
			{
				OFFSET	0	206.5	19.3
				CHANNELS 3  Xrotation Yrotation Zrotation
				JOINT spine_4
				{
					OFFSET	0	110.4	14.6
					CHANNELS 3  Xrotation Yrotation Zrotation
					JOINT neck_1
					{
						OFFSET	0	71.8	-50.3
						CHANNELS 3  Xrotation Yrotation Zrotation
						JOINT neck_2
						{
							OFFSET	0	86.2	-25.8
							CHANNELS 3  Xrotation Yrotation Zrotation
							JOINT head_ee
							{
								OFFSET	0	179.8	-8.7
								CHANNELS 3  Xrotation Yrotation Zrotation
								End Site
								{
									OFFSET	1	0	0
								}
							}
						}
					}
					JOINT left_clavicle
					{
						OFFSET	-43.2	22.4	-70.8
						CHANNELS 3  Xrotation Yrotation Zrotation
						JOINT left_shoulder
						{
							OFFSET	-93.9	-5.79999	48.7
							CHANNELS 3  Xrotation Yrotation Zrotation
							JOINT left_elbow
							{
								OFFSET	-291.4	-30.8	15.2
								CHANNELS 3  Xrotation Yrotation Zrotation
								JOINT left_lowarm_twist
								{
									OFFSET	-110.7	-3.89999	13.6
									CHANNELS 3  Xrotation Yrotation Zrotation
									JOINT left_hand
									{
										OFFSET	-110.7	-3.89999	13.6
										CHANNELS 3  Xrotation Yrotation Zrotation
										JOINT left_ee
										{
											OFFSET	-80.8	-5.10001	12.1
											CHANNELS 3  Xrotation Yrotation Zrotation
											End Site
											{
												OFFSET	1	0	0
											}
										}
									}
								}
							}
						}
					}
					JOINT right_clavicle
					{
						OFFSET	43.2	22.4	-70.8
						CHANNELS 3  Xrotation Yrotation Zrotation
						JOINT right_shoulder
						{
							OFFSET	93.9	-5.79999	48.7
							CHANNELS 3  Xrotation Yrotation Zrotation
							JOINT right_elbow
							{
								OFFSET	291.4	-30.8	15.2
								CHANNELS 3  Xrotation Yrotation Zrotation
								JOINT right_lowarm_twist
								{
									OFFSET	110.7	-3.89999	13.6
									CHANNELS 3  Xrotation Yrotation Zrotation
									JOINT right_hand
									{
										OFFSET	110.7	-3.89999	13.6
										CHANNELS 3  Xrotation Yrotation Zrotation
										JOINT right_ee
										{
											OFFSET	80.8	-5.10001	12.1
											CHANNELS 3  Xrotation Yrotation Zrotation
											End Site
											{
												OFFSET	1	0	0
											}
										}
									}
								}
							}
						}
					}
				}
			}
		}
	}
	JOINT left_hip
	{
		OFFSET	-82.8	-127.5	0.300001
		CHANNELS 3  Xrotation Yrotation Zrotation
		JOINT left_knee
		{
			OFFSET	-28.2	-396.7	2.2
			CHANNELS 3  Xrotation Yrotation Zrotation
			JOINT left_ankle
			{
				OFFSET	-11.7	-411.3	35.4
				CHANNELS 3  Xrotation Yrotation Zrotation
				JOINT left_toes
				{
					OFFSET	0	-60	-88.6
					CHANNELS 3  Xrotation Yrotation Zrotation
					JOINT left_foot_ee
					{
						OFFSET	-22.5	-16.5	-42.2
						CHANNELS 3  Xrotation Yrotation Zrotation
						End Site
						{
							OFFSET	1	0	0
						}
					}
				}
			}
		}
	}
	JOINT right_hip
	{
		OFFSET	82.8	-127.5	0.300001
		CHANNELS 3  Xrotation Yrotation Zrotation
		JOINT right_knee
		{
			OFFSET	28.2	-396.7	2.2
			CHANNELS 3  Xrotation Yrotation Zrotation
			JOINT right_ankle
			{
				OFFSET	11.7	-411.3	35.4
				CHANNELS 3  Xrotation Yrotation Zrotation
				JOINT right_toes
				{
					OFFSET	0	-60	-88.6
					CHANNELS 3  Xrotation Yrotation Zrotation
					JOINT right_foot_ee
					{
						OFFSET	22.5	-16.5	-42.2
						CHANNELS 3  Xrotation Yrotation Zrotation
						End Site
						{
							OFFSET	1	0	0
						}
					}
				}
			}
		}
	}
}
MOTION
Frames: 8
Frame Time: 0.02
1735.25 712.708 -679.703 1.49091 -75.6077 10.8818 1.5329 -0.826218 -4.81964 1.54567 -0.51823 -4.86231 1.59109 0.380354 -4.875 1.55816 -0.393395 -4.87397 -6.46029 -2.95315 8.1808 -6.23443 -11.4454 7.68303 -0.0 0.0 -0.0 4.81585 -21.2605 7.92427 0.950951 -30.2542 76.738 1.60096 -38.414 0.557766 -19.5882 -1.08531 2.24512 -2.83486 10.7797 -13.7583 -0.0 0.0 -0.0 -7.20337 -23.39 7.28563 -16.112 31.2227 -64.4997 0.86177 23.1172 -0.17625 25.9112 -0.174527 3.27726 0.59428 -13.29 -9.22655 0.0 0.0 0.0 4.36603 9.92648 -4.06419 3.017 -0.135946 -0.442917 34.7173 -20.417 -4.85995 1.10974 -0.0 -0.0 -0.0 0.0 -0.0 9.6626 -46.5888 0.858848 -33.1701 0.090353 -5.01927 -13.4849 9.27615 -2.1225 -36.7831 0.0 0.0 0.0 0.0 0.0 
1738.34 715.591 -678.036 0.655533 -75.1483 9.79572 1.48901 -0.84689 -4.79801 1.50166 -0.540231 -4.84203 1.54893 0.358509 -4.85883 1.51624 -0.412423 -4.85456 -6.03218 -2.69568 8.77606 -5.7676 -11.4496 8.39072 -0.0 0.0 -0.0 4.65694 -21.5797 7.5507 0.857419 -27.4426 78.0012 1.65375 -39.3218 0.590892 -19.0129 -1.04273 2.18499 -2.83081 8.30777 -15.0308 -0.0 0.0 -0.0 -6.1778 -23.4871 5.80306 -18.6032 33.606 -62.6613 0.805482 21.7525 -0.154768 23.008 -0.229061 2.91046 0.826622 -12.9959 -10.6012 0.0 0.0 0.0 4.09991 9.82756 -3.73341 3.19916 -0.1449 -0.469427 32.5195 -21.9968 -4.69119 1.39068 -0.0 -0.0 -0.0 0.0 -0.0 9.48845 -46.4492 0.687448 -32.4515 0.0576115 -4.91387 -13.2171 10.291 -2.09215 -37.7941 0.0 0.0 0.0 0.0 0.0 
1743.76 715.912 -676.872 2.44106 -75.398 11.5242 1.48568 -0.835642 -4.87976 1.49877 -0.523823 -4.9229 1.54542 0.389898 -4.93528 1.51167 -0.393456 -4.935 -5.72963 -2.41217 8.66905 -5.46895 -10.879 8.36958 -0.0 0.0 -0.0 4.20334 -22.0097 6.52833 1.31869 -29.1518 78.9659 1.67655 -39.7069 0.6054 -17.8759 -0.960387 2.06492 -2.50491 7.43313 -13.2964 -0.0 0.0 -0.0 -5.41374 -23.8049 4.64556 -19.1502 34.0646 -61.368 0.707562 19.3159 -0.120413 22.0335 -0.243192 2.78677 1.0253 -12.8363 -11.82 0.0 0.0 0.0 1.82032 10.2653 -3.03882 6.20212 -0.304615 -0.902238 34.608 -23.7693 -4.99863 2.3986 -0.0 -0.0 -0.0 0.0 -0.0 9.04358 -47.9876 1.12036 -31.9152 0.0340416 -4.83495 -10.9935 9.61771 -1.72874 -38.4011 0.0 0.0 0.0 0.0 0.0 
1747.73 716.758 -670.398 3.53939 -75.487 12.2317 1.33765 -0.807268 -4.82214 1.35044 -0.49916 -4.8636 1.39492 0.416129 -4.87139 1.362 -0.357498 -4.87603 -6.07773 -1.50032 8.57758 -5.83723 -9.09396 8.39998 -0.0 0.0 -0.0 4.07195 -23.3091 6.11771 0.729552 -28.1756 78.7917 1.67981 -39.7616 0.607485 -16.9556 -0.895497 1.96657 -1.61756 3.78129 -9.12663 -0.0 0.0 -0.0 -6.62634 -23.5904 6.4033 -17.5706 34.9732 -64.2066 0.868284 23.2734 -0.178816 17.2951 -0.281828 2.18295 0.25193 -18.7676 -9.13474 0.0 0.0 0.0 1.51441 9.45586 -3.34979 5.82245 -0.283169 -0.847978 29.5552 -22.3605 -4.36808 2.25091 -0.0 -0.0 -0.0 0.0 -0.0 9.66868 -49.2617 2.71518 -29.2078 -0.073594 -4.43345 -16.3503 11.1492 -2.60892 -36.1324 0.0 0.0 0.0 0.0 0.0 
1753.88 718.745 -668.669 4.17073 -75.6275 12.5075 1.17296 -0.829873 -4.73328 1.18527 -0.527352 -4.77636 1.2319 0.385689 -4.78985 1.20009 -0.374727 -4.79072 -6.40885 -0.382527 9.37888 -6.13633 -7.58045 9.38729 -0.0 0.0 -0.0 4.18829 -23.2377 6.37685 -0.201617 -27.4275 78.4305 1.65438 -39.3326 0.591293 -17.8567 -0.959019 2.06288 -1.35821 -0.818586 -9.47731 -0.0 0.0 -0.0 -5.54758 -23.4239 4.93678 -19.1321 34.2683 -62.5669 0.846706 22.7546 -0.17038 17.5195 -0.281126 2.2116 0.655714 -22.0539 -12.7419 0.0 0.0 0.0 0.578127 8.77521 -3.47154 5.64134 -0.273066 -0.822046 27.7903 -22.5889 -4.16519 3.74362 -0.0 -0.0 -0.0 0.0 -0.0 9.5696 -43.9294 1.90357 -24.2649 -0.220684 -3.68937 -21.6321 13.7856 -3.52065 -38.3228 0.0 0.0 0.0 0.0 0.0 
1758.45 719.225 -669.865 7.52836 -76.2183 14.9695 1.01185 -0.707502 -4.45396 1.02279 -0.422944 -4.48986 1.05868 0.447803 -4.48745 1.03069 -0.265785 -4.50187 -7.48686 -0.532934 8.69714 -7.2608 -7.2221 8.57164 -0.0 0.0 -0.0 3.99101 -23.5442 5.91911 -0.628467 -27.0162 79.3364 1.6392 -39.074 0.581699 -15.9382 -0.825618 1.85666 -0.832963 -2.72572 -6.76368 -0.0 0.0 -0.0 -5.69954 -23.2426 5.20073 -18.8431 34.4725 -62.8778 0.854379 22.9395 -0.173359 15.6817 -0.283573 1.97689 0.716248 -21.6099 -12.9559 0.0 0.0 0.0 -0.972846 9.07139 -2.26555 4.81071 -0.227784 -0.702718 24.4947 -22.1044 -3.73155 2.99487 -0.0 -0.0 -0.0 0.0 -0.0 9.44729 -48.4715 3.22921 -15.9022 -0.321926 -2.41131 -20.1857 19.0486 -3.42933 -36.8153 0.0 0.0 0.0 0.0 0.0 
1766.51 718.511 -665.495 9.33887 -76.5245 16.3996 0.946005 -0.76381 -4.2917 0.956116 -0.489432 -4.33151 0.995988 0.356622 -4.34443 0.969813 -0.33331 -4.34628 -6.94932 -0.301257 9.75345 -6.66059 -7.62912 9.73058 -0.0 0.0 -0.0 4.32802 -22.6397 6.73777 -2.74455 -22.598 78.6454 1.67835 -39.737 0.606549 -17.3558 -0.923522 2.00947 0.101129 -12.8276 -4.77606 -0.0 0.0 -0.0 -6.07575 -23.4894 5.65892 -17.5302 32.6536 -64.94 0.932186 24.7861 -0.20484 13.3496 -0.275842 1.67915 0.455476 -23.0034 -11.8739 0.0 0.0 0.0 -1.77541 11.149 -1.70256 4.8826 -0.231635 -0.713072 22.7342 -21.8677 -3.49214 1.55499 -0.0 -0.0 -0.0 0.0 -0.0 7.44244 -48.1596 2.04436 -13.1636 -0.314436 -1.99123 -20.5544 24.8658 -3.70912 -34.0649 0.0 0.0 0.0 0.0 0.0 
1770.15 719.947 -662.996 9.53862 -76.7055 16.0902 1.02536 -0.772664 -4.10284 1.03458 -0.510254 -4.14359 1.07396 0.294085 -4.16449 1.04995 -0.366725 -4.15873 -7.34771 0.498054 8.4646 -7.13641 -5.15678 8.55749 -0.0 0.0 -0.0 4.3059 -22.0763 6.74393 -3.38427 -24.8586 78.7284 1.61009 -38.5727 0.563448 -15.2922 -0.782264 1.78623 0.512172 -9.96812 -0.777565 -0.0 0.0 -0.0 -5.85198 -23.4741 5.34923 -17.6667 34.829 -64.7379 0.859314 23.0582 -0.175287 11.8976 -0.26491 1.49401 0.349962 -25.6776 -12.1727 0.0 0.0 0.0 -1.83407 9.29235 -1.63761 3.81581 -0.175838 -0.558964 20.1054 -20.2165 -3.08702 0.945947 -0.0 -0.0 -0.0 0.0 -0.0 6.52178 -44.3054 1.01753 -11.6086 -0.30125 -1.75302 -21.211 23.9954 -3.79001 -36.2946 0.0 0.0 0.0 0.0 0.0 
